<?xml version="1.0" standalone="no"?>
<!DOCTYPE svg PUBLIC "-//W3C//DTD SVG 20010904//EN"
 "http://www.w3.org/TR/2001/REC-SVG-20010904/DTD/svg10.dtd">
<svg version="1.0" xmlns="http://www.w3.org/2000/svg"
 width="784.000000pt" height="784.000000pt" viewBox="0 0 784.000000 784.000000"
 preserveAspectRatio="xMidYMid meet">
<metadata>
Created by potrace 1.11, written by Peter Selinger 2001-2013
</metadata>
<g transform="translate(0.000000,784.000000) scale(0.100000,-0.100000)"
fill="#000000" stroke="none">
<path d="M3630 7834 c-648 -58 -1212 -238 -1737 -555 -262 -157 -484 -331
-716 -559 -645 -632 -1037 -1425 -1154 -2335 -26 -200 -25 -731 0 -930 98
-760 384 -1430 859 -2017 123 -152 424 -451 578 -574 585 -466 1246 -745 1995
-841 200 -25 730 -25 930 0 749 96 1410 375 1995 841 154 123 455 422 578 574
188 232 338 464 472 732 204 409 326 812 387 1285 25 199 26 730 0 930 -113
884 -483 1652 -1097 2278 -623 637 -1404 1027 -2294 1148 -117 16 -218 21
-451 24 -165 1 -320 1 -345 -1z m481 -1285 c1022 -81 1881 -781 2166 -1764
106 -367 122 -808 43 -1185 -150 -718 -628 -1343 -1280 -1675 -364 -185 -711
-268 -1120 -268 -409 0 -756 83 -1120 268 -652 332 -1130 957 -1280 1675 -79
377 -63 818 43 1185 164 567 532 1061 1032 1385 443 287 982 422 1516 379z"/>
<path d="M3730 6350 c-610 -55 -1150 -339 -1548 -815 -324 -386 -512 -909
-512 -1424 0 -593 220 -1140 630 -1565 128 -132 221 -211 368 -310 529 -358
1197 -470 1828 -306 724 187 1325 752 1560 1467 185 562 143 1178 -117 1702
-119 242 -256 427 -460 627 -340 330 -765 539 -1239 608 -132 19 -385 27 -510
16z m421 -435 c749 -99 1353 -635 1539 -1366 70 -273 69 -611 -1 -891 -83
-333 -279 -661 -532 -893 -267 -244 -574 -394 -947 -462 -132 -24 -448 -24
-580 0 -603 110 -1079 462 -1343 992 -130 261 -188 511 -188 810 0 407 118
767 360 1093 387 521 1051 803 1692 717z"/>
<path d="M3525 5400 c-114 -8 -251 -24 -322 -36 l-33 -6 0 -1279 0 -1279 290
0 290 0 0 458 0 457 198 1 c144 0 224 5 297 18 339 61 574 214 689 448 72 145
89 224 90 408 0 178 -11 235 -74 365 -112 232 -317 371 -635 431 -105 19 -589
28 -790 14z m612 -455 c186 -44 290 -158 301 -329 18 -288 -195 -459 -554
-444 -61 3 -117 8 -123 12 -8 5 -11 114 -11 381 l0 374 33 5 c17 3 43 7 57 9
65 10 240 5 297 -8z"/>
</g>
</svg>
