<svg xmlns="http://www.w3.org/2000/svg" width="140" height="140" viewBox="0 0 80 62" class="SadMessage__icon">
    <path fill="#BBBBBB" d="M0 5.01C0 2.243 2.244 0 5.004 0h69.992C77.76 0 80 2.234 80 5.01v41.98c0 2.767-2.23 5.01-5.004 5.01H50L40 62 30 52H5.004C2.24 52 0 49.766 0 46.99V5.01zm4 41.988C4 47.55 4.445 48 4.993 48H31l9 9 9-9h26.007c.547 0 .993-.448.993-1.002V5.002C76 4.45 75.557 4 75.01 4H4.99C4.44 4 4 4.448 4 5.002v41.996zm13-17c5.705 0 5-6.998 5-6.998h-1.996s.682 5-3.004 5-3.004-5-3.004-5H12s-.705 6.998 5 6.998zm46 0c5.705 0 5-6.998 5-6.998h-1.996s.682 5-3.004 5-3.004-5-3.004-5H58s-.705 6.998 5 6.998zM30 41s0-9 10-9 10 9 10 9h2s.33-11-12-11-12 11-12 11h2z"></path>
</svg>